<?xml version="1.0" encoding="utf-8"?>
<!-- Generator: Adobe Illustrator 16.0.0, SVG Export Plug-In . SVG Version: 6.00 Build 0)  -->
<!DOCTYPE svg PUBLIC "-//W3C//DTD SVG 1.1//EN" "http://www.w3.org/Graphics/SVG/1.1/DTD/svg11.dtd">
<svg version="1.1" id="Layer_1" xmlns="http://www.w3.org/2000/svg" xmlns:xlink="http://www.w3.org/1999/xlink" x="0px" y="0px"
	 width="300px" height="250px" viewBox="271.945 202.14 300 250" enable-background="new 271.945 202.14 300 250"
	 xml:space="preserve">
<path d="M403.172,282.555"/>
<path fill="#FA5815" d="M416.198,270.414h41.159l6.627,6.69c1.203,1.214,1.168,2.076,0,3.29l-8.084,8.071l-4.734-4.737l-4.729,4.737
	l-4.668-4.671l-4.549,4.55l-4.738-4.736L426.3,289.8h-10.102V270.414L416.198,270.414z"/>
<path d="M394.338,332.507"/>
<path fill="#FA5815" d="M460.382,334.029l-7.693-19.874c-1.445-3.797-4.592-7.043-10.547-7.063h-10.863h-18.548h-11.05
	c-5.93,0.021-9.065,3.267-10.545,7.063l-7.694,19.874c-3.059,0.396-8.469,3.998-8.458,10.799v25.326h7.508v8.061
	c-0.012,9.979,14.076,9.849,14.076,0v-8.061h25.371h25.316v8.061c0.033,9.849,14.135,9.979,14.135,0v-8.061h7.516v-25.326
	C468.884,338.027,463.462,334.426,460.382,334.029z M389.756,354.874c-3.61,0-6.525-3.002-6.503-6.69
	c-0.022-3.732,2.893-6.735,6.503-6.691c3.589-0.044,6.502,2.981,6.502,6.691C396.259,351.872,393.345,354.874,389.756,354.874z
	 M421.939,333.854h-0.066h-30.417l5.808-15.658c0.696-2.23,1.79-3.818,4.361-3.853h20.248h0.066h20.326
	c2.529,0.034,3.621,1.622,4.359,3.853l5.811,15.658H421.939z M454.134,354.874c-3.621,0-6.549-3.002-6.57-6.69
	c0.021-3.732,2.949-6.735,6.57-6.691c3.566-0.044,6.482,2.981,6.502,6.691C460.616,351.872,457.7,354.874,454.134,354.874z"/>
<path d="M441.552,332.507"/>
<path fill="#FA5815" d="M401.802,260.631c-10.654-0.021-19.277,8.701-19.31,19.442c0.033,10.766,8.656,19.486,19.31,19.509
	c10.643-0.022,19.276-8.743,19.254-19.509C421.078,269.332,412.445,260.609,401.802,260.631z M393.345,285.185
	c-2.849-0.021-5.134-2.34-5.102-5.178c-0.032-2.87,2.252-5.189,5.102-5.177c2.804-0.012,5.1,2.307,5.122,5.177
	C398.445,282.845,396.149,285.163,393.345,285.185z"/>
<path d="M396.97,282.507"/>
</svg>
