<?xml version="1.0" encoding="utf-8"?>
<!-- Generator: Adobe Illustrator 16.0.0, SVG Export Plug-In . SVG Version: 6.00 Build 0)  -->
<!DOCTYPE svg PUBLIC "-//W3C//DTD SVG 1.1//EN" "http://www.w3.org/Graphics/SVG/1.1/DTD/svg11.dtd">
<svg version="1.1" id="Layer_1" xmlns="http://www.w3.org/2000/svg" xmlns:xlink="http://www.w3.org/1999/xlink" x="0px" y="0px"
	 width="141px" height="163.667px" viewBox="0 -4.667 141 163.667" enable-background="new 0 -4.667 141 163.667"
	 xml:space="preserve">
<path d="M55.477,33.414"/>
<path fill="#DD5A26" d="M66.035,24.33h30.186l4.859,4.906c0.883,0.891,0.857,1.521,0,2.413l-5.928,5.919l-3.475-3.475l-3.467,3.475
	l-3.424-3.426l-3.336,3.336l-3.475-3.475l-4.533,4.543h-7.41V24.33H66.035z"/>
<path d="M46.643,83.366"/>
<path fill="#DD5A26" d="M98.439,70.985L92.795,56.41c-1.061-2.784-3.367-5.165-7.732-5.181h-7.969H63.49h-8.104
	c-4.35,0.016-6.648,2.396-7.732,5.181l-5.644,14.575c-2.244,0.291-6.211,2.933-6.203,7.92v18.574h5.507v5.911
	c-0.009,7.318,10.323,7.223,10.323,0v-5.911h18.606h18.566v5.911c0.023,7.223,10.365,7.318,10.365,0v-5.911h5.514V78.905
	C104.674,73.917,100.697,71.276,98.439,70.985z M46.643,86.272c-2.648,0-4.785-2.201-4.77-4.906
	c-0.016-2.737,2.121-4.938,4.77-4.907c2.633-0.031,4.77,2.188,4.77,4.907C51.41,84.071,49.273,86.272,46.643,86.272z M70.244,70.857
	h-0.047H47.889l4.26-11.483c0.51-1.636,1.311-2.801,3.198-2.824h14.851h0.047h14.908c1.854,0.023,2.654,1.188,3.197,2.824
	l4.262,11.483H70.244z M93.857,86.272c-2.656,0-4.805-2.201-4.818-4.906c0.016-2.737,2.162-4.938,4.818-4.907
	c2.613-0.031,4.752,2.188,4.768,4.907C98.609,84.071,96.471,86.272,93.857,86.272z"/>
<path d="M93.857,83.366"/>
<path fill="#DD5A26" d="M55.477,17.156c-7.814-0.016-14.138,6.381-14.162,14.26c0.024,7.896,6.348,14.291,14.162,14.308
	c7.805-0.017,14.137-6.412,14.121-14.308C69.613,23.537,63.281,17.141,55.477,17.156z M49.273,35.164
	c-2.089-0.017-3.765-1.717-3.74-3.798c-0.024-2.104,1.651-3.806,3.74-3.797c2.057-0.009,3.74,1.692,3.756,3.797
	C53.015,33.447,51.33,35.148,49.273,35.164z"/>
<path d="M49.273,33.366"/>
<rect x="5.25" fill="none" stroke="#DD5A26" stroke-width="4" stroke-miterlimit="10" width="130" height="129.999"/>
<rect x="9.75" y="143.999" fill="none" width="126" height="30"/>
<text transform="matrix(1 0 0 1 54.77 158)" fill="#DD5A26" font-family="'Gilroy-Light'" font-size="20">Hire</text>
<g>
	<polyline fill="#DD5A26" points="-153.924,209.231 -92.699,209.231 -92.699,252.522 	"/>
	<g>
		<g opacity="0.9">
			
				<line fill="none" stroke="#24282B" stroke-width="4" stroke-miterlimit="10" x1="-106.095" y1="267.408" x2="-163.863" y2="267.408"/>
		</g>
		<g opacity="0.9">
			<path fill="none" stroke="#24282B" stroke-width="4" stroke-miterlimit="10" d="M-179.091,249.613v-31.461c0-5.5,4.5-10,10-10
				h68.145c5.5,0,10,4.5,10,10v31.461"/>
		</g>
		
			<circle opacity="0.9" fill="none" stroke="#24282B" stroke-width="4" stroke-miterlimit="10" cx="-90.868" cy="265.857" r="15.228"/>
		
			<circle opacity="0.9" fill="none" stroke="#24282B" stroke-width="4" stroke-miterlimit="10" cx="-90.867" cy="265.99" r="8.758"/>
		
			<circle opacity="0.9" fill="none" stroke="#24282B" stroke-width="4" stroke-miterlimit="10" cx="-179.09" cy="265.857" r="15.228"/>
		
			<circle opacity="0.9" fill="none" stroke="#24282B" stroke-width="4" stroke-miterlimit="10" cx="-179.09" cy="265.99" r="8.758"/>
		<g>
			<path opacity="0.9" fill="#24282B" d="M-60.218,254.926l9.695-5.621c1.757,4.075,4.778,6.816,10.33,6.816
				c5.341,0,6.676-2.108,6.676-4.006c0-3.022-2.811-4.216-10.189-6.253c-7.307-2.039-14.476-5.552-14.476-14.968
				c0-9.485,8.011-14.968,16.514-14.968c8.082,0,14.406,3.865,17.988,11.103l-9.485,5.552c-1.687-3.514-4.006-5.691-8.503-5.691
				c-3.514,0-5.27,1.757-5.27,3.724c0,2.249,1.193,3.794,8.853,6.114c7.449,2.248,15.811,4.848,15.811,15.247
				c0,9.486-7.588,15.108-18.268,15.108C-50.873,267.083-57.478,262.163-60.218,254.926z"/>
			<path opacity="0.9" fill="#24282B" d="M32.186,266.099H20.945v-28.6l-12.719,20.87H6.961l-12.719-20.87v28.6H-17v-49.188h11.243
				l13.352,21.853l13.351-21.853h11.241V266.099z"/>
			<path opacity="0.9" fill="#24282B" d="M69.434,258.369H51.164l-2.458,7.729H36.409l16.722-49.188h14.335l16.724,49.188H71.893
				L69.434,258.369z M66.061,247.829l-5.764-18.059l-5.76,18.059H66.061z"/>
			<path opacity="0.9" fill="#24282B" d="M104.992,249.938h-5.34v16.161H88.408v-49.188h19.676c9.346,0,16.865,7.518,16.865,16.864
				c0,6.044-3.654,11.524-9.066,14.265l10.471,18.059h-12.086L104.992,249.938z M99.652,240.1h8.432
				c3.092,0,5.621-2.741,5.621-6.324c0-3.584-2.529-6.324-5.621-6.324h-8.432V240.1z"/>
			<path opacity="0.9" fill="#24282B" d="M163.598,227.732h-12.648v38.366h-11.24v-38.366h-12.648v-10.821h36.537V227.732z"/>
			<path opacity="0.9" fill="#24282B" d="M185.104,249.938h-5.34v16.161h-11.242v-49.188h19.674c9.344,0,16.863,7.518,16.863,16.864
				c0,6.044-3.652,11.524-9.064,14.265l10.471,18.059h-12.086L185.104,249.938z M179.764,240.1h8.432
				c3.09,0,5.621-2.741,5.621-6.324c0-3.584-2.531-6.324-5.621-6.324h-8.432V240.1z"/>
			<path fill="#DD5A26" d="M211.387,260.407c0-3.654,3.023-6.676,6.676-6.676s6.676,3.021,6.676,6.676s-3.023,6.676-6.676,6.676
				S211.387,264.062,211.387,260.407z"/>
		</g>
	</g>
</g>
</svg>
