<?xml version="1.0" encoding="utf-8"?>
<!-- Generator: Adobe Illustrator 16.0.0, SVG Export Plug-In . SVG Version: 6.00 Build 0)  -->
<!DOCTYPE svg PUBLIC "-//W3C//DTD SVG 1.1//EN" "http://www.w3.org/Graphics/SVG/1.1/DTD/svg11.dtd">
<svg version="1.1" id="Layer_1" xmlns="http://www.w3.org/2000/svg" xmlns:xlink="http://www.w3.org/1999/xlink" x="0px" y="0px"
	 width="141px" height="159px" viewBox="351.445 249.14 141 159" enable-background="new 351.445 249.14 141 159"
	 xml:space="preserve">
<path d="M406.172,282.555"/>
<path fill="#FA5815" d="M416.73,273.471h30.186l4.859,4.906c0.883,0.891,0.857,1.522,0,2.413l-5.928,5.919l-3.473-3.474
	l-3.468,3.474l-3.424-3.426l-3.335,3.336l-3.476-3.474l-4.533,4.542h-7.409V273.471L416.73,273.471z"/>
<path d="M397.338,332.507"/>
<path fill="#FA5815" d="M449.134,320.126l-5.643-14.575c-1.061-2.784-3.368-5.165-7.734-5.181h-7.968h-13.603h-8.104
	c-4.349,0.016-6.648,2.396-7.733,5.181l-5.643,14.575c-2.244,0.291-6.211,2.933-6.203,7.92v18.574h5.506v5.911
	c-0.008,7.319,10.324,7.223,10.324,0v-5.911h18.606h18.567v5.911c0.023,7.223,10.365,7.319,10.365,0v-5.911h5.513v-18.574
	C455.369,323.058,451.393,320.417,449.134,320.126z M397.338,335.413c-2.648,0-4.786-2.201-4.77-4.906
	c-0.016-2.737,2.122-4.939,4.77-4.907c2.632-0.032,4.769,2.187,4.769,4.907C402.106,333.212,399.969,335.413,397.338,335.413z
	 M420.94,319.998h-0.048h-22.308l4.259-11.483c0.51-1.636,1.312-2.801,3.199-2.825h14.85h0.048h14.907
	c1.854,0.024,2.655,1.189,3.197,2.825l4.262,11.483H420.94z M444.552,335.413c-2.656,0-4.803-2.201-4.818-4.906
	c0.016-2.737,2.162-4.939,4.818-4.907c2.615-0.032,4.753,2.187,4.768,4.907C449.305,333.212,447.167,335.413,444.552,335.413z"/>
<path d="M444.552,332.507"/>
<path fill="#FA5815" d="M406.172,266.297c-7.814-0.016-14.138,6.381-14.162,14.259c0.024,7.896,6.348,14.291,14.162,14.308
	c7.805-0.017,14.137-6.412,14.121-14.308C420.309,272.678,413.977,266.281,406.172,266.297z M399.969,284.304
	c-2.089-0.016-3.765-1.716-3.741-3.797c-0.024-2.105,1.652-3.806,3.741-3.797c2.056-0.009,3.74,1.692,3.756,3.797
	C403.71,282.588,402.026,284.289,399.969,284.304z"/>
<path d="M399.969,282.507"/>
<rect x="355.945" y="249.14" fill="none" stroke="#FA5815" stroke-width="5" stroke-miterlimit="10" width="130" height="130"/>
<rect x="360.445" y="393.14" fill="none" width="126" height="30"/>
<text transform="matrix(1 0 0 1 405.4651 407.1404)" fill="#FA5815" font-family="'Gilroy-Light'" font-size="20">Hire</text>
</svg>
