<?xml version="1.0" encoding="utf-8"?>
<!-- Generator: Adobe Illustrator 16.0.0, SVG Export Plug-In . SVG Version: 6.00 Build 0)  -->
<!DOCTYPE svg PUBLIC "-//W3C//DTD SVG 1.1//EN" "http://www.w3.org/Graphics/SVG/1.1/DTD/svg11.dtd">
<svg version="1.1" id="Layer_1" xmlns="http://www.w3.org/2000/svg" xmlns:xlink="http://www.w3.org/1999/xlink" x="0px" y="0px"
	 width="141px" height="163.667px" viewBox="0 -4.667 141 163.667" enable-background="new 0 -4.667 141 163.667"
	 xml:space="preserve">
<path d="M55.477,33.414"/>
<path fill="#FA5815" d="M66.035,24.33h30.186l4.859,4.906c0.883,0.891,0.857,1.521,0,2.413l-5.928,5.919l-3.475-3.475l-3.467,3.475
	l-3.424-3.426l-3.336,3.336l-3.475-3.475l-4.533,4.543h-7.41V24.33H66.035z"/>
<path d="M46.643,83.366"/>
<path fill="#FA5815" d="M98.439,70.985L92.795,56.41c-1.061-2.784-3.367-5.165-7.732-5.181h-7.969H63.49h-8.104
	c-4.35,0.016-6.648,2.396-7.732,5.181l-5.644,14.575c-2.244,0.291-6.211,2.933-6.203,7.92v18.574h5.507v5.911
	c-0.009,7.318,10.323,7.223,10.323,0v-5.911h18.606h18.566v5.911c0.023,7.223,10.365,7.318,10.365,0v-5.911h5.514V78.905
	C104.674,73.917,100.697,71.276,98.439,70.985z M46.643,86.272c-2.648,0-4.785-2.201-4.77-4.906
	c-0.016-2.737,2.121-4.938,4.77-4.907c2.633-0.031,4.77,2.188,4.77,4.907C51.41,84.071,49.273,86.272,46.643,86.272z M70.244,70.857
	h-0.047H47.889l4.26-11.483c0.51-1.636,1.311-2.801,3.198-2.824h14.851h0.047h14.908c1.854,0.023,2.654,1.188,3.197,2.824
	l4.262,11.483H70.244z M93.857,86.272c-2.656,0-4.805-2.201-4.818-4.906c0.016-2.737,2.162-4.938,4.818-4.907
	c2.613-0.031,4.752,2.188,4.768,4.907C98.609,84.071,96.471,86.272,93.857,86.272z"/>
<path d="M93.857,83.366"/>
<path fill="#FA5815" d="M55.477,17.156c-7.814-0.016-14.138,6.381-14.162,14.26c0.024,7.896,6.348,14.291,14.162,14.308
	c7.805-0.017,14.137-6.412,14.121-14.308C69.613,23.537,63.281,17.141,55.477,17.156z M49.273,35.164
	c-2.089-0.017-3.765-1.717-3.74-3.798c-0.024-2.104,1.651-3.806,3.74-3.797c2.057-0.009,3.74,1.692,3.756,3.797
	C53.015,33.447,51.33,35.148,49.273,35.164z"/>
<path d="M49.273,33.366"/>
<rect x="5.25" fill="none" stroke="#FA5815" stroke-width="5" stroke-miterlimit="10" width="130" height="129.999"/>
<rect x="9.75" y="143.999" fill="none" width="126" height="30"/>
<text transform="matrix(1 0 0 1 54.77 158)" fill="#FA5815" font-family="'Gilroy-Light'" font-size="20">Hire</text>
</svg>
