<?xml version="1.0" encoding="utf-8"?>
<!-- Generator: Adobe Illustrator 16.0.0, SVG Export Plug-In . SVG Version: 6.00 Build 0)  -->
<!DOCTYPE svg PUBLIC "-//W3C//DTD SVG 1.1//EN" "http://www.w3.org/Graphics/SVG/1.1/DTD/svg11.dtd">
<svg version="1.1" id="Layer_1" xmlns="http://www.w3.org/2000/svg" xmlns:xlink="http://www.w3.org/1999/xlink" x="0px" y="0px"
	 width="135px" height="162.141px" viewBox="0 0 135 162.141" enable-background="new 0 0 135 162.141" xml:space="preserve">
<path fill="#010101" d="M52.671,36.556"/>
<path fill="#010101" d="M43.837,86.507"/>
<path fill="#010101" d="M91.052,86.507"/>
<path fill="#010101" d="M46.469,36.507"/>
<rect x="2.444" y="3.141" fill="none" stroke="#F15B22" stroke-width="5" stroke-miterlimit="10" width="130" height="130"/>
<rect x="6.944" y="147.141" fill="none" width="126" height="30"/>
<text transform="matrix(1 0 0 1 47.0347 161.1406)" fill="#F15B22" font-family="'Gilroy-Light'" font-size="20">Lend</text>
<g>
	<g>
		<path fill="#F15B22" d="M81.612,71.869c0-0.272-0.272-0.82-0.819-0.82H47.746c-0.273,0-0.819,0.273-0.819,0.82
			c0,0.273,0.272,0.82,0.819,0.82h33.047C81.34,72.689,81.612,72.416,81.612,71.869z"/>
		<path fill="#F15B22" d="M84.615,66.953c0-0.273-0.271-0.819-0.818-0.819H47.746c-0.273,0-0.819,0.273-0.819,0.819
			c0,0.272,0.272,0.819,0.819,0.819h36.051C84.344,67.772,84.615,67.499,84.615,66.953z"/>
		<path fill="#F15B22" d="M47.746,62.856h33.047c0.272,0,0.819-0.273,0.819-0.819c0-0.546-0.272-0.819-0.819-0.819H47.746
			c-0.273,0-0.819,0.273-0.819,0.819C46.927,62.583,47.473,62.856,47.746,62.856z"/>
		<path fill="#F15B22" d="M83.797,56.574H47.746c-0.273,0-0.819,0.273-0.819,0.82s0.272,0.819,0.819,0.819h36.051
			c0.273,0,0.818-0.272,0.818-0.819S84.344,56.574,83.797,56.574z"/>
		<path fill="#F15B22" d="M47.746,53.297h33.047c0.272,0,0.819-0.273,0.819-0.819c0-0.273-0.272-0.82-0.819-0.82H47.746
			c-0.273,0-0.819,0.273-0.819,0.82C47.199,53.024,47.473,53.297,47.746,53.297z"/>
		<path fill="#F15B22" d="M47.746,45.377h15.84c0.273,0,0.82-0.273,0.82-0.82c0-0.273-0.273-0.819-0.82-0.819h-15.84
			c-0.273,0-0.819,0.273-0.819,0.819C47.199,45.104,47.473,45.377,47.746,45.377z"/>
		<path fill="#F15B22" d="M47.746,40.733h13.109c0.273,0,0.82-0.273,0.82-0.819c0-0.546-0.273-0.819-0.82-0.819H47.746
			c-0.273,0-0.819,0.273-0.819,0.819C46.927,40.46,47.473,40.733,47.746,40.733z"/>
		<path fill="#F15B22" d="M91.444,98.634H41.463V28.99h49.981v39.875l3.005-3.004V27.351c0-0.819-0.547-1.366-1.365-1.366H40.098
			c-0.273,0-0.273,0-0.546,0c-0.272,0-0.272,0.273-0.545,0.273l-3.824,4.097c-0.273,0.273-0.546,0.546-0.546,1.092v72.65
			c0,0.819,0.546,1.365,1.365,1.365h52.984c0.274,0,0.819-0.272,1.094-0.546l4.096-4.096c0,0,0.274-0.276,0.274-0.548
			c0-0.274,0-0.274,0-0.546V80.063l-3.005,3.004V98.634L91.444,98.634z"/>
		<path fill="#F15B22" d="M115.479,57.667l1.366-1.365c0.546-0.546,0.546-1.639,0-2.185l-3.279-3.005
			c-0.271-0.272-0.545-0.546-1.091-0.546c-0.274,0-0.819,0.274-1.094,0.546L83.25,79.243c0,0-0.272,0.273-0.272,0.545l-2.73,5.736
			c-0.274,0.547,0,1.093,0.272,1.64c0.273,0.272,0.546,0.546,1.093,0.546c0.272,0,0.546,0,0.546,0l5.736-2.731
			c0.271,0,0.271-0.273,0.545-0.273l25.4-25.4l0.818,0.819v0.273l-7.647,7.647c-0.546,0.547-0.546,1.092,0,1.639
			c0.274,0.273,0.548,0.273,0.82,0.273c0.273,0,0.548,0,0.819-0.273l7.647-7.647c1.093-1.092,1.093-2.458,0-3.55L115.479,57.667z"/>
		<path fill="#F15B22" d="M61.128,87.71c0.273,0.272,0.819,0.547,1.639,0c0.819-0.546,1.639-0.82,2.458-1.366
			c0,0.82,0.545,1.366,1.092,1.366c0.546,0.272,1.093,0,1.365,0l1.64-0.546c0.272,0.546,0.818,1.093,1.639,1.365
			c0.272,0,0.818,0.272,1.092,0.272c0.546,0,1.366-0.272,1.912-0.545l0.546-0.274c0.547-0.272,0.819-0.272,1.365-0.546
			c0.273,0,0.819,0,0.819,0.273c0.274,0.547,1.093,0.819,1.64,0.272c0.545-0.272,0.819-1.092,0.272-1.638
			c-0.547-1.092-1.912-1.366-3.003-1.092c-0.547,0-1.365,0.272-1.64,0.546l-0.546,0.273c-0.547,0.273-1.093,0.273-1.64,0.273
			c-0.273,0-0.546-0.273-0.273-0.546c0-0.273,0-0.819-0.272-1.092s-0.819-0.273-1.093-0.273l-2.185,0.819l0.546-1.639
			c0.273-0.546,0-1.093-0.546-1.365c-0.546-0.273-0.819-0.273-1.365,0c-1.093,0.819-2.185,1.638-3.551,2.458l0.819-3.277
			c0-0.547,0-0.82-0.273-1.092c-0.272-0.273-0.819-0.273-1.092,0c-2.731,1.365-5.462,3.004-7.92,5.188
			c-0.546,0.273-0.546,1.093-0.272,1.64c0.272,0.546,1.092,0.546,1.639,0.272c1.638-1.365,3.55-2.731,5.462-3.823l-0.546,2.458
			C60.582,86.89,60.855,87.437,61.128,87.71z"/>
	</g>
</g>
</svg>
