<?xml version="1.0" encoding="utf-8"?>
<!-- Generator: Adobe Illustrator 16.0.0, SVG Export Plug-In . SVG Version: 6.00 Build 0)  -->
<!DOCTYPE svg PUBLIC "-//W3C//DTD SVG 1.1//EN" "http://www.w3.org/Graphics/SVG/1.1/DTD/svg11.dtd">
<svg version="1.1" id="Layer_1" xmlns="http://www.w3.org/2000/svg" xmlns:xlink="http://www.w3.org/1999/xlink" x="0px" y="0px"
	 width="300px" height="250px" viewBox="0 0 300 250" enable-background="new 0 0 300 250" xml:space="preserve">
<path fill="#010101" d="M140.571,77.917"/>
<path fill="#010101" d="M127.46,146.579"/>
<path fill="#010101" d="M197.534,146.579"/>
<path fill="#010101" d="M131.367,77.845"/>
<g>
	<g>
		<path fill="#F15B22" d="M183.524,124.854c0-0.404-0.405-1.216-1.216-1.216h-49.047c-0.405,0-1.215,0.405-1.215,1.216
			c0,0.405,0.404,1.217,1.215,1.217h49.047C183.12,126.071,183.524,125.666,183.524,124.854z"/>
		<path fill="#F15B22" d="M187.981,117.558c0-0.405-0.403-1.215-1.214-1.215h-53.506c-0.405,0-1.215,0.405-1.215,1.215
			c0,0.405,0.404,1.215,1.215,1.215h53.506C187.578,118.773,187.981,118.369,187.981,117.558z"/>
		<path fill="#F15B22" d="M133.261,111.478h49.047c0.404,0,1.216-0.405,1.216-1.216c0-0.811-0.405-1.216-1.216-1.216h-49.047
			c-0.405,0-1.215,0.406-1.215,1.216C132.045,111.073,132.855,111.478,133.261,111.478z"/>
		<path fill="#F15B22" d="M186.767,102.155h-53.506c-0.405,0-1.215,0.405-1.215,1.216s0.404,1.215,1.215,1.215h53.506
			c0.406,0,1.214-0.404,1.214-1.215S187.578,102.155,186.767,102.155z"/>
		<path fill="#F15B22" d="M133.261,97.291h49.047c0.404,0,1.216-0.405,1.216-1.215c0-0.406-0.405-1.217-1.216-1.217h-49.047
			c-0.405,0-1.215,0.406-1.215,1.217C132.45,96.885,132.855,97.291,133.261,97.291z"/>
		<path fill="#F15B22" d="M133.261,85.536h23.51c0.406,0,1.216-0.405,1.216-1.217c0-0.405-0.405-1.216-1.216-1.216h-23.51
			c-0.405,0-1.215,0.405-1.215,1.216C132.45,85.131,132.855,85.536,133.261,85.536z"/>
		<path fill="#F15B22" d="M133.261,78.644h19.457c0.406,0,1.216-0.405,1.216-1.216c0-0.81-0.406-1.215-1.216-1.215h-19.457
			c-0.405,0-1.215,0.405-1.215,1.215C132.045,78.239,132.855,78.644,133.261,78.644z"/>
		<path fill="#F15B22" d="M198.116,164.578h-74.179V61.216h74.179v59.18l4.46-4.459V58.783c0-1.216-0.812-2.027-2.026-2.027h-78.64
			c-0.405,0-0.405,0-0.811,0c-0.405,0-0.405,0.406-0.81,0.406l-5.675,6.08c-0.405,0.406-0.811,0.811-0.811,1.621v107.824
			c0,1.216,0.811,2.026,2.026,2.026h78.637c0.407,0,1.216-0.404,1.624-0.81l6.079-6.079c0,0,0.407-0.41,0.407-0.813
			c0-0.407,0-0.407,0-0.81v-29.185l-4.46,4.459V164.578L198.116,164.578z"/>
		<path fill="#F15B22" d="M233.787,103.776l2.028-2.026c0.81-0.811,0.81-2.432,0-3.243l-4.867-4.46
			c-0.403-0.404-0.809-0.811-1.619-0.811c-0.407,0-1.216,0.406-1.624,0.811l-41.75,41.751c0,0-0.404,0.405-0.404,0.81l-4.052,8.513
			c-0.407,0.812,0,1.622,0.404,2.434c0.406,0.404,0.81,0.81,1.622,0.81c0.404,0,0.81,0,0.81,0l8.513-4.054
			c0.403,0,0.403-0.405,0.809-0.405l37.698-37.697l1.215,1.215v0.406l-11.35,11.349c-0.81,0.812-0.81,1.621,0,2.433
			c0.407,0.405,0.813,0.405,1.217,0.405c0.406,0,0.813,0,1.216-0.405l11.35-11.35c1.622-1.621,1.622-3.648,0-5.27L233.787,103.776z"
			/>
		<path fill="#F15B22" d="M153.123,148.365c0.405,0.404,1.215,0.812,2.432,0c1.215-0.81,2.432-1.217,3.648-2.027
			c0,1.217,0.81,2.027,1.621,2.027c0.81,0.404,1.622,0,2.026,0l2.433-0.81c0.405,0.81,1.215,1.622,2.432,2.026
			c0.404,0,1.215,0.404,1.621,0.404c0.81,0,2.027-0.404,2.838-0.808l0.81-0.408c0.812-0.404,1.216-0.404,2.026-0.81
			c0.406,0,1.216,0,1.216,0.406c0.407,0.812,1.622,1.216,2.434,0.404c0.809-0.404,1.216-1.621,0.404-2.431
			c-0.812-1.621-2.838-2.027-4.457-1.621c-0.812,0-2.026,0.404-2.433,0.81l-0.811,0.406c-0.812,0.405-1.622,0.405-2.433,0.405
			c-0.406,0-0.811-0.405-0.406-0.811c0-0.406,0-1.216-0.404-1.621c-0.404-0.405-1.216-0.405-1.622-0.405l-3.242,1.216l0.81-2.432
			c0.406-0.81,0-1.622-0.81-2.026c-0.811-0.405-1.216-0.405-2.026,0c-1.622,1.216-3.243,2.43-5.27,3.647l1.216-4.864
			c0-0.812,0-1.217-0.406-1.621c-0.405-0.405-1.215-0.405-1.622,0c-4.053,2.026-8.106,4.458-11.755,7.7
			c-0.81,0.406-0.81,1.622-0.404,2.434c0.404,0.81,1.621,0.81,2.432,0.404c2.431-2.026,5.269-4.053,8.106-5.674l-0.811,3.648
			C152.312,147.148,152.717,147.959,153.123,148.365z"/>
	</g>
</g>
</svg>
