<?xml version="1.0" encoding="utf-8"?>
<!-- Generator: Adobe Illustrator 16.0.0, SVG Export Plug-In . SVG Version: 6.00 Build 0)  -->
<!DOCTYPE svg PUBLIC "-//W3C//DTD SVG 1.1//EN" "http://www.w3.org/Graphics/SVG/1.1/DTD/svg11.dtd">
<svg version="1.1" id="Layer_1" xmlns="http://www.w3.org/2000/svg" xmlns:xlink="http://www.w3.org/1999/xlink" x="0px" y="0px"
	 width="135px" height="162.141px" viewBox="0 0 135 162.141" enable-background="new 0 0 135 162.141" xml:space="preserve">
<path fill="#010101" d="M52.671,36.556"/>
<path fill="#010101" d="M43.837,86.507"/>
<path fill="#010101" d="M91.053,86.507"/>
<path fill="#010101" d="M46.469,36.507"/>
<rect x="2.444" y="3.141" fill="none" stroke="#DD5A26" stroke-width="5" stroke-miterlimit="10" width="130" height="130"/>
<rect x="6.944" y="147.141" fill="none" width="126" height="30"/>
<text transform="matrix(1 0 0 1 47.0347 161.1409)" fill="#DD5A26" font-family="'Gilroy-Light'" font-size="20">Lend</text>
<g>
	<g>
		<path fill="#DD5A26" d="M81.611,71.869c0-0.272-0.271-0.82-0.818-0.82H47.746c-0.273,0-0.819,0.273-0.819,0.82
			c0,0.272,0.272,0.819,0.819,0.819h33.047C81.34,72.689,81.611,72.416,81.611,71.869z"/>
		<path fill="#DD5A26" d="M84.615,66.953c0-0.273-0.271-0.819-0.818-0.819H47.746c-0.273,0-0.819,0.273-0.819,0.819
			c0,0.271,0.272,0.818,0.819,0.818h36.051C84.344,67.772,84.615,67.499,84.615,66.953z"/>
		<path fill="#DD5A26" d="M47.746,62.856h33.047c0.271,0,0.818-0.272,0.818-0.818s-0.271-0.819-0.818-0.819H47.746
			c-0.273,0-0.819,0.273-0.819,0.819S47.473,62.856,47.746,62.856z"/>
		<path fill="#DD5A26" d="M83.797,56.574H47.746c-0.273,0-0.819,0.272-0.819,0.819s0.272,0.819,0.819,0.819h36.051
			c0.273,0,0.818-0.272,0.818-0.819S84.344,56.574,83.797,56.574z"/>
		<path fill="#DD5A26" d="M47.746,53.297h33.047c0.271,0,0.818-0.273,0.818-0.819c0-0.272-0.271-0.819-0.818-0.819H47.746
			c-0.273,0-0.819,0.272-0.819,0.819C47.199,53.024,47.473,53.297,47.746,53.297z"/>
		<path fill="#DD5A26" d="M47.746,45.377h15.84c0.273,0,0.82-0.273,0.82-0.82c0-0.272-0.273-0.819-0.82-0.819h-15.84
			c-0.273,0-0.819,0.273-0.819,0.819C47.199,45.104,47.473,45.377,47.746,45.377z"/>
		<path fill="#DD5A26" d="M47.746,40.733h13.109c0.273,0,0.82-0.272,0.82-0.818s-0.273-0.819-0.82-0.819H47.746
			c-0.273,0-0.819,0.273-0.819,0.819S47.473,40.733,47.746,40.733z"/>
		<path fill="#DD5A26" d="M91.443,98.634h-49.98V28.99h49.98v39.875l3.006-3.005v-38.51c0-0.818-0.547-1.366-1.365-1.366H40.098
			c-0.273,0-0.273,0-0.546,0c-0.272,0-0.272,0.273-0.545,0.273l-3.824,4.097c-0.273,0.273-0.546,0.546-0.546,1.093v72.649
			c0,0.819,0.546,1.365,1.365,1.365h52.984c0.273,0,0.818-0.272,1.094-0.546l4.096-4.097c0,0,0.274-0.275,0.274-0.548
			c0-0.273,0-0.273,0-0.546V80.063l-3.005,3.004v15.567H91.443z"/>
		<path fill="#DD5A26" d="M115.479,57.667l1.367-1.365c0.545-0.546,0.545-1.639,0-2.185l-3.279-3.006
			c-0.271-0.271-0.545-0.546-1.092-0.546c-0.273,0-0.818,0.274-1.094,0.546L83.25,79.243c0,0-0.271,0.272-0.271,0.545l-2.73,5.735
			c-0.273,0.547,0,1.094,0.271,1.641c0.273,0.271,0.547,0.546,1.094,0.546c0.271,0,0.546,0,0.546,0l5.735-2.731
			c0.271,0,0.271-0.272,0.545-0.272l25.4-25.4l0.818,0.819v0.272l-7.646,7.647c-0.547,0.547-0.547,1.092,0,1.639
			c0.273,0.273,0.547,0.273,0.819,0.273s0.548,0,0.819-0.273l7.646-7.646c1.094-1.093,1.094-2.458,0-3.551L115.479,57.667z"/>
		<path fill="#DD5A26" d="M61.128,87.71c0.273,0.271,0.819,0.547,1.639,0c0.819-0.546,1.639-0.82,2.458-1.366
			c0,0.82,0.545,1.366,1.092,1.366c0.546,0.271,1.093,0,1.365,0l1.64-0.546c0.271,0.546,0.818,1.093,1.639,1.364
			c0.271,0,0.818,0.272,1.092,0.272c0.547,0,1.366-0.272,1.912-0.545l0.547-0.274c0.547-0.271,0.818-0.271,1.364-0.546
			c0.272,0,0.819,0,0.819,0.273c0.273,0.547,1.093,0.818,1.64,0.271c0.545-0.271,0.819-1.092,0.272-1.638
			c-0.547-1.092-1.912-1.366-3.004-1.092c-0.547,0-1.365,0.271-1.64,0.546l-0.546,0.272c-0.547,0.273-1.093,0.273-1.641,0.273
			c-0.272,0-0.545-0.273-0.272-0.546c0-0.273,0-0.819-0.272-1.092c-0.271-0.273-0.818-0.273-1.092-0.273l-2.186,0.819l0.546-1.64
			c0.272-0.546,0-1.093-0.546-1.364c-0.546-0.273-0.819-0.273-1.365,0c-1.093,0.818-2.185,1.638-3.551,2.458l0.819-3.277
			c0-0.547,0-0.82-0.273-1.092c-0.272-0.273-0.819-0.273-1.092,0c-2.731,1.365-5.462,3.004-7.92,5.188
			c-0.546,0.273-0.546,1.094-0.272,1.641c0.272,0.546,1.092,0.546,1.639,0.271c1.638-1.364,3.55-2.73,5.462-3.822l-0.546,2.458
			C60.582,86.89,60.855,87.437,61.128,87.71z"/>
	</g>
</g>
<g>
	<polyline fill="#DD5A26" points="-264.841,170.898 -203.616,170.898 -203.616,214.189 	"/>
	<g>
		<g opacity="0.9">
			
				<line fill="none" stroke="#24282B" stroke-width="4" stroke-miterlimit="10" x1="-217.012" y1="229.074" x2="-274.78" y2="229.074"/>
		</g>
		<g opacity="0.9">
			<path fill="none" stroke="#24282B" stroke-width="4" stroke-miterlimit="10" d="M-290.008,211.28v-31.461c0-5.5,4.5-10,10-10
				h68.145c5.5,0,10,4.5,10,10v31.461"/>
		</g>
		
			<circle opacity="0.9" fill="none" stroke="#24282B" stroke-width="4" stroke-miterlimit="10" cx="-201.785" cy="227.524" r="15.228"/>
		
			<circle opacity="0.9" fill="none" stroke="#24282B" stroke-width="4" stroke-miterlimit="10" cx="-201.784" cy="227.656" r="8.758"/>
		
			<circle opacity="0.9" fill="none" stroke="#24282B" stroke-width="4" stroke-miterlimit="10" cx="-290.007" cy="227.524" r="15.228"/>
		
			<circle opacity="0.9" fill="none" stroke="#24282B" stroke-width="4" stroke-miterlimit="10" cx="-290.007" cy="227.656" r="8.758"/>
		<g>
			<path opacity="0.9" fill="#24282B" d="M-171.135,216.592l9.695-5.621c1.757,4.076,4.778,6.816,10.33,6.816
				c5.341,0,6.676-2.108,6.676-4.006c0-3.021-2.811-4.216-10.189-6.254c-7.307-2.037-14.476-5.551-14.476-14.967
				c0-9.485,8.011-14.967,16.514-14.967c8.082,0,14.406,3.864,17.988,11.102l-9.485,5.552c-1.687-3.513-4.006-5.692-8.503-5.692
				c-3.514,0-5.27,1.758-5.27,3.725c0,2.249,1.193,3.795,8.853,6.113c7.449,2.249,15.811,4.848,15.811,15.248
				c0,9.486-7.588,15.107-18.268,15.107C-161.79,228.748-168.395,223.829-171.135,216.592z"/>
			<path opacity="0.9" fill="#24282B" d="M-78.731,227.764h-11.241v-28.599l-12.719,20.87h-1.265l-12.719-20.87v28.599h-11.243
				v-49.187h11.243l13.352,21.853l13.351-21.853h11.241V227.764z"/>
			<path opacity="0.9" fill="#24282B" d="M-41.483,220.035h-18.271l-2.458,7.729h-12.297l16.722-49.187h14.335l16.725,49.187
				h-12.298L-41.483,220.035z M-44.856,209.494l-5.764-18.059l-5.76,18.059H-44.856z"/>
			<path opacity="0.9" fill="#24282B" d="M-5.924,211.604h-5.341v16.16h-11.243v-49.187h19.675c9.347,0,16.866,7.519,16.866,16.864
				c0,6.043-3.654,11.523-9.066,14.264l10.471,18.059H3.351L-5.924,211.604z M-11.265,201.766h8.432c3.093,0,5.622-2.74,5.622-6.324
				s-2.529-6.324-5.622-6.324h-8.432V201.766z"/>
			<path opacity="0.9" fill="#24282B" d="M52.681,189.399H40.033v38.365H28.792v-38.365H16.143v-10.821h36.538V189.399z"/>
			<path opacity="0.9" fill="#24282B" d="M74.186,211.604h-5.338v16.16H57.604v-49.187h19.675c9.344,0,16.863,7.519,16.863,16.864
				c0,6.043-3.654,11.523-9.064,14.264l10.471,18.059H83.463L74.186,211.604z M68.848,201.766h8.432c3.09,0,5.621-2.74,5.621-6.324
				s-2.531-6.324-5.621-6.324h-8.432V201.766z"/>
			<path fill="#DD5A26" d="M100.471,222.073c0-3.653,3.023-6.676,6.676-6.676s6.676,3.022,6.676,6.676s-3.023,6.675-6.676,6.675
				S100.471,225.727,100.471,222.073z"/>
		</g>
	</g>
</g>
</svg>
