<?xml version="1.0" encoding="utf-8"?>
<!-- Generator: Adobe Illustrator 16.0.0, SVG Export Plug-In . SVG Version: 6.00 Build 0)  -->
<!DOCTYPE svg PUBLIC "-//W3C//DTD SVG 1.1//EN" "http://www.w3.org/Graphics/SVG/1.1/DTD/svg11.dtd">
<svg version="1.1" id="Layer_1" xmlns="http://www.w3.org/2000/svg" xmlns:xlink="http://www.w3.org/1999/xlink" x="0px" y="0px"
	 width="437.5px" height="91.666px" viewBox="0 0 437.5 91.666" enable-background="new 0 0 437.5 91.666" xml:space="preserve">
<g>
	<polyline fill="#DD5B26" points="46.486,12.62 107.712,12.62 107.712,55.911 	"/>
	<g>
		<g opacity="0.9">
			<line fill="none" stroke="#24282B" stroke-width="4" stroke-miterlimit="10" x1="94.315" y1="70.797" x2="36.548" y2="70.797"/>
		</g>
		<g opacity="0.9">
			<path fill="none" stroke="#24282B" stroke-width="4" stroke-miterlimit="10" d="M21.319,53.002V21.541c0-5.5,4.5-10,10-10h68.145
				c5.5,0,10,4.5,10,10v31.461"/>
		</g>
		
			<circle opacity="0.9" fill="none" stroke="#24282B" stroke-width="4" stroke-miterlimit="10" cx="109.543" cy="69.246" r="15.228"/>
		
			<circle opacity="0.9" fill="none" stroke="#24282B" stroke-width="4" stroke-miterlimit="10" cx="109.544" cy="69.379" r="8.758"/>
		<circle opacity="0.9" fill="none" stroke="#24282B" stroke-width="4" stroke-miterlimit="10" cx="21.32" cy="69.246" r="15.228"/>
		<circle opacity="0.9" fill="none" stroke="#24282B" stroke-width="4" stroke-miterlimit="10" cx="21.32" cy="69.379" r="8.758"/>
		<g>
			<path opacity="0.9" fill="#24282B" d="M140.192,58.314l9.695-5.621c1.757,4.076,4.778,6.816,10.33,6.816
				c5.341,0,6.676-2.108,6.676-4.006c0-3.021-2.811-4.216-10.189-6.253c-7.307-2.038-14.476-5.551-14.476-14.967
				c0-9.485,8.011-14.967,16.514-14.967c8.082,0,14.406,3.865,17.988,11.102l-9.485,5.552c-1.687-3.513-4.006-5.692-8.503-5.692
				c-3.514,0-5.27,1.757-5.27,3.724c0,2.249,1.193,3.794,8.853,6.114c7.449,2.249,15.811,4.848,15.811,15.248
				c0,9.486-7.588,15.107-18.268,15.107C149.538,70.471,142.933,65.552,140.192,58.314z"/>
			<path opacity="0.9" fill="#24282B" d="M232.597,69.486h-11.241V40.888l-12.719,20.87h-1.265l-12.719-20.87v28.599H183.41V20.3
				h11.243l13.352,21.853L221.355,20.3h11.241V69.486z"/>
			<path opacity="0.9" fill="#24282B" d="M269.845,61.758h-18.271l-2.458,7.729h-12.297L253.541,20.3h14.335l16.725,49.187h-12.298
				L269.845,61.758z M266.472,51.217l-5.764-18.058l-5.76,18.058H266.472z"/>
			<path opacity="0.9" fill="#24282B" d="M305.403,53.326h-5.341v16.16h-11.243V20.3h19.675c9.347,0,16.866,7.518,16.866,16.864
				c0,6.043-3.654,11.524-9.066,14.264l10.471,18.059h-12.086L305.403,53.326z M300.062,43.488h8.432
				c3.093,0,5.622-2.741,5.622-6.324c0-3.584-2.529-6.324-5.622-6.324h-8.432V43.488z"/>
			<path opacity="0.9" fill="#24282B" d="M364.009,31.121H351.36v38.365h-11.241V31.121h-12.648V20.3h36.538V31.121z"/>
			<path opacity="0.9" fill="#24282B" d="M385.514,53.326h-5.339v16.16h-11.243V20.3h19.675c9.344,0,16.863,7.518,16.863,16.864
				c0,6.043-3.653,11.524-9.064,14.264l10.471,18.059H394.79L385.514,53.326z M380.175,43.488h8.432c3.09,0,5.621-2.741,5.621-6.324
				c0-3.584-2.531-6.324-5.621-6.324h-8.432V43.488z"/>
			<path fill="#DD5B26" d="M411.798,63.796c0-3.653,3.023-6.676,6.676-6.676s6.676,3.022,6.676,6.676s-3.023,6.675-6.676,6.675
				S411.798,67.449,411.798,63.796z"/>
		</g>
	</g>
</g>
</svg>
